<svg id="Group_514" data-name="Group 514" xmlns="http://www.w3.org/2000/svg" xmlns:xlink="http://www.w3.org/1999/xlink" width="276" height="133.151" viewBox="0 0 276 133.151">
  <defs>
    <clipPath id="clip-path">
      <rect id="Rectangle_293" data-name="Rectangle 293" width="276" height="133.151" fill="none"/>
    </clipPath>
    <clipPath id="clip-path-2">
      <rect id="Rectangle_291" data-name="Rectangle 291" width="276.002" height="133.153" fill="none"/>
    </clipPath>
    <clipPath id="clip-path-3">
      <rect id="Rectangle_289" data-name="Rectangle 289" width="234.874" height="99.762" fill="none"/>
    </clipPath>
    <clipPath id="clip-path-4">
      <rect id="Rectangle_290" data-name="Rectangle 290" width="147.33" height="62.578" fill="none"/>
    </clipPath>
  </defs>
  <g id="Group_513" data-name="Group 513" clip-path="url(#clip-path)">
    <g id="Group_510" data-name="Group 510" transform="translate(0 -0.001)">
      <g id="Group_509" data-name="Group 509" clip-path="url(#clip-path-2)">
        <g id="Group_505" data-name="Group 505" transform="translate(41.126 33.391)" style="mix-blend-mode: multiply;isolation: isolate">
          <g id="Group_504" data-name="Group 504">
            <g id="Group_503" data-name="Group 503" clip-path="url(#clip-path-3)">
              <path id="Path_228" data-name="Path 228" d="M47.809,9.057H209.372a36.632,36.632,0,0,1,2.19,73.2v26.563L163.786,82.367H47.809a36.655,36.655,0,0,1,0-73.31" transform="translate(-11.153 -9.056)" fill="#63539e"/>
            </g>
          </g>
        </g>
        <g id="Group_508" data-name="Group 508" transform="translate(0 0.001)" style="mix-blend-mode: multiply;isolation: isolate">
          <g id="Group_507" data-name="Group 507" transform="translate(0 0)">
            <g id="Group_506" data-name="Group 506" clip-path="url(#clip-path-4)">
              <path id="Path_229" data-name="Path 229" d="M124.338,0H22.994a22.977,22.977,0,0,0-1.371,45.914V62.578L51.588,45.984h72.75a22.992,22.992,0,1,0,0-45.984" transform="translate(0 0)" fill="#17a898"/>
            </g>
          </g>
        </g>
      </g>
    </g>
    <path id="Path_230" data-name="Path 230" d="M7.511,16.632h7.974v3.093H2.494v-2.12L10.442,6.151H2.45v-3.1H15.4V5.108Z" transform="translate(6.581 8.186)" fill="#fff"/>
    <g id="Group_512" data-name="Group 512" transform="translate(0 -0.001)">
      <g id="Group_511" data-name="Group 511" clip-path="url(#clip-path-2)">
        <path id="Path_231" data-name="Path 231" d="M12.516,17A6.377,6.377,0,0,1,7.9,15.3a5.879,5.879,0,0,1-1.766-4.428v-.321a7.623,7.623,0,0,1,.7-3.355A5.186,5.186,0,0,1,8.9,4.943a6.217,6.217,0,0,1,3.207-.8,5.37,5.37,0,0,1,4.125,1.622,6.372,6.372,0,0,1,1.512,4.52v1.5H10.064a2.772,2.772,0,0,0,.907,1.637,2.684,2.684,0,0,0,1.81.594,3.461,3.461,0,0,0,2.861-1.279l1.766,2.083a4.938,4.938,0,0,1-2.046,1.585,6.879,6.879,0,0,1-2.846.59m-.435-9.873q-1.7,0-2.017,2.245h3.9v-.3a1.92,1.92,0,0,0-.472-1.438,1.867,1.867,0,0,0-1.408-.509" transform="translate(16.48 11.143)" fill="#fff"/>
        <path id="Path_232" data-name="Path 232" d="M9.58,10.483A8.354,8.354,0,0,1,10.2,7.162a4.969,4.969,0,0,1,1.773-2.23,4.706,4.706,0,0,1,2.691-.785,3.732,3.732,0,0,1,3.027,1.309l.136-1.077h3.506V16.3a5.214,5.214,0,0,1-.763,2.846,4.907,4.907,0,0,1-2.2,1.858,8.1,8.1,0,0,1-3.344.645,6.946,6.946,0,0,1-2.643-.516,4.769,4.769,0,0,1-1.95-1.338l1.615-2.267A3.537,3.537,0,0,0,14.881,18.8q2.566,0,2.566-2.636v-.391A3.619,3.619,0,0,1,14.642,17a4.479,4.479,0,0,1-3.665-1.736,7.187,7.187,0,0,1-1.4-4.645Zm3.871.24a4.427,4.427,0,0,0,.571,2.411,1.808,1.808,0,0,0,1.6.888,2.049,2.049,0,0,0,1.821-.837V7.973a2,2,0,0,0-1.8-.848,1.828,1.828,0,0,0-1.618.922,5.061,5.061,0,0,0-.583,2.677" transform="translate(25.739 11.141)" fill="#fff"/>
        <path id="Path_233" data-name="Path 233" d="M29.128,19.725h-4V12.761H19.208v6.964H15.189V3.047h4.019V9.668h5.925V3.047h4Z" transform="translate(40.808 8.187)" fill="#fff"/>
        <path id="Path_234" data-name="Path 234" d="M25.7,17a6.377,6.377,0,0,1-4.616-1.7,5.879,5.879,0,0,1-1.766-4.428v-.321a7.623,7.623,0,0,1,.7-3.355,5.186,5.186,0,0,1,2.057-2.253,6.217,6.217,0,0,1,3.207-.8,5.37,5.37,0,0,1,4.125,1.622,6.372,6.372,0,0,1,1.512,4.52v1.5H23.244a2.772,2.772,0,0,0,.907,1.637,2.684,2.684,0,0,0,1.81.594,3.461,3.461,0,0,0,2.861-1.279l1.766,2.083a4.938,4.938,0,0,1-2.046,1.585A6.879,6.879,0,0,1,25.7,17m-.435-9.873q-1.7,0-2.017,2.245h3.9v-.3a1.92,1.92,0,0,0-.472-1.438,1.867,1.867,0,0,0-1.408-.509" transform="translate(51.891 11.143)" fill="#fff"/>
        <path id="Path_235" data-name="Path 235" d="M28.069,3.373V6.455h2.039v2.68H28.069v5.67a1.463,1.463,0,0,0,.251.973,1.354,1.354,0,0,0,1,.277,5.852,5.852,0,0,0,.962-.07v2.761a7.157,7.157,0,0,1-2.179.332,4.04,4.04,0,0,1-2.942-.94,3.853,3.853,0,0,1-.951-2.854V9.135H22.627V6.455h1.582V3.373Z" transform="translate(60.792 9.064)" fill="#fff"/>
        <path id="Path_236" data-name="Path 236" d="M32.167,3.047l3.724,11.606L39.6,3.047h5.29V19.725H40.861V15.832l.391-7.974L37.218,19.725H34.56L30.519,7.847l.387,7.985v3.893H26.888V3.047Z" transform="translate(72.24 8.187)" fill="#fff"/>
        <path id="Path_237" data-name="Path 237" d="M38.507,17a6.377,6.377,0,0,1-4.616-1.7,5.879,5.879,0,0,1-1.766-4.428v-.321a7.623,7.623,0,0,1,.7-3.355,5.186,5.186,0,0,1,2.057-2.253,6.217,6.217,0,0,1,3.207-.8,5.37,5.37,0,0,1,4.125,1.622,6.372,6.372,0,0,1,1.512,4.52v1.5H36.055a2.772,2.772,0,0,0,.907,1.637,2.684,2.684,0,0,0,1.81.594,3.461,3.461,0,0,0,2.861-1.279L43.4,14.824a4.937,4.937,0,0,1-2.046,1.585,6.879,6.879,0,0,1-2.846.59m-.435-9.873q-1.7,0-2.017,2.245h3.9v-.3a1.92,1.92,0,0,0-.472-1.438,1.867,1.867,0,0,0-1.408-.509" transform="translate(86.311 11.143)" fill="#fff"/>
        <path id="Path_238" data-name="Path 238" d="M40.88,3.373V6.455h2.039v2.68H40.88v5.67a1.463,1.463,0,0,0,.251.973,1.354,1.354,0,0,0,1,.277,5.852,5.852,0,0,0,.962-.07v2.761a7.157,7.157,0,0,1-2.179.332,4.04,4.04,0,0,1-2.942-.94,3.852,3.852,0,0,1-.951-2.854V9.135H35.438V6.455H37.02V3.373Z" transform="translate(95.212 9.064)" fill="#fff"/>
        <path id="Path_239" data-name="Path 239" d="M33.9,38.926l-3.948,4.332V53.783H20.329V13.871h9.619v17.6L33.291,26.4,41.9,13.871H53.8L40.311,31.523,53.8,53.783h-11.4Z" transform="translate(54.617 37.268)" fill="#fff"/>
        <path id="Path_240" data-name="Path 240" d="M39.691,46.38H56.439v7.4H30.068V13.871h9.622Z" transform="translate(80.785 37.269)" fill="#fff"/>
        <path id="Path_241" data-name="Path 241" d="M63.074,36.842H47.944V46.38H65.817v7.4h-27.5V13.871H65.869V21.3H47.944v8.417h15.13Z" transform="translate(102.959 37.268)" fill="#fff"/>
        <path id="Path_242" data-name="Path 242" d="M78.245,13.871V40a15.026,15.026,0,0,1-1.891,7.69,12.273,12.273,0,0,1-5.427,4.944,19.1,19.1,0,0,1-8.361,1.7q-7.289,0-11.484-3.783T46.8,40.187V13.871h9.674V40.378q.166,6.553,6.087,6.551a5.9,5.9,0,0,0,4.524-1.644q1.532-1.648,1.534-5.346V13.871Z" transform="translate(125.751 37.269)" fill="#fff"/>
        <path id="Path_243" data-name="Path 243" d="M71.793,39.667H66.583V53.783H56.961V13.871H72.67q7.1,0,11.1,3.148a10.663,10.663,0,0,1,4,8.9,12.939,12.939,0,0,1-1.685,6.9,11.957,11.957,0,0,1-5.276,4.439L89.142,53.37v.413h-10.3Zm-5.209-7.4H72.67A5.469,5.469,0,0,0,76.8,30.819,5.568,5.568,0,0,0,78.178,26.8a5.646,5.646,0,0,0-1.4-4.055A5.412,5.412,0,0,0,72.67,21.27H66.583Z" transform="translate(153.038 37.269)" fill="#fff"/>
      </g>
    </g>
  </g>
</svg>
