<svg xmlns="http://www.w3.org/2000/svg" xmlns:xlink="http://www.w3.org/1999/xlink" width="245.706" height="143.331" viewBox="0 0 245.706 143.331">
  <defs>
    <clipPath id="clip-path">
      <rect id="Rectangle_394" data-name="Rectangle 394" width="245.706" height="143.331" fill="none"/>
    </clipPath>
  </defs>
  <g id="Group_627" data-name="Group 627" clip-path="url(#clip-path)">
    <path id="Path_291" data-name="Path 291" d="M131.246,0H7.375A7.373,7.373,0,0,0,0,7.375V37.307a7.366,7.366,0,0,0,7.177,7.357V59.043a1.972,1.972,0,0,0,3.143,1.589l21.607-15.95h99.319a7.375,7.375,0,0,0,7.375-7.375V7.375A7.375,7.375,0,0,0,131.246,0" transform="translate(0 -0.001)" fill="#00b5a9"/>
    <path id="Path_292" data-name="Path 292" d="M215.389,13.94H16.668a7.375,7.375,0,0,0-7.375,7.375V75.376a7.375,7.375,0,0,0,7.375,7.375H173.6l34.917,25.77a2,2,0,0,0,3.195-1.613V82.751h3.68a7.375,7.375,0,0,0,7.375-7.375V21.315a7.375,7.375,0,0,0-7.375-7.375" transform="translate(22.943 34.414)" fill="#8067ad"/>
    <path id="Path_293" data-name="Path 293" d="M7.334,15.393h6.383V17.87H3.317v-1.7L9.683,7h-6.4V4.515H13.655V6.166Z" transform="translate(8.096 11.145)" fill="#fff"/>
    <path id="Path_294" data-name="Path 294" d="M14.989,12.2H9.928v3.191h5.977V17.87h-9.2V4.515h9.217V7h-6V9.819h5.061Z" transform="translate(16.564 11.145)" fill="#fff"/>
    <path id="Path_295" data-name="Path 295" d="M20.852,16.355a5.174,5.174,0,0,1-2.175,1.329,9.363,9.363,0,0,1-3.136.506,5.6,5.6,0,0,1-4.19-1.606,6.5,6.5,0,0,1-1.679-4.464l-.007-1.159a7.955,7.955,0,0,1,.694-3.441,5.174,5.174,0,0,1,1.995-2.265,5.64,5.64,0,0,1,3-.794A5.918,5.918,0,0,1,19.232,5.6a4.832,4.832,0,0,1,1.61,3.406h-3.1a2.553,2.553,0,0,0-.715-1.6,2.326,2.326,0,0,0-1.561-.475A2.1,2.1,0,0,0,13.6,7.963a5.45,5.45,0,0,0-.669,2.935v.808a5.34,5.34,0,0,0,.683,3,2.417,2.417,0,0,0,2.151,1.006,2.713,2.713,0,0,0,1.87-.558V13.08H15.4V10.87h5.456Z" transform="translate(23.861 11.009)" fill="#fff"/>
    <path id="Path_296" data-name="Path 296" d="M25.94,17.867h-3.2V12.293H18v5.574H14.777V4.516H18v5.3h4.742v-5.3h3.2Z" transform="translate(36.483 11.147)" fill="#fff"/>
    <path id="Path_297" data-name="Path 297" d="M26.863,12.2H21.8v3.191h5.977V17.87h-9.2V4.515H27.8V7h-6V9.819h5.061Z" transform="translate(45.877 11.145)" fill="#fff"/>
    <path id="Path_298" data-name="Path 298" d="M32.629,7H28.623V17.867H25.4V7H21.47V4.516H32.629Z" transform="translate(53.005 11.148)" fill="#fff"/>
    <path id="Path_299" data-name="Path 299" d="M30.5,4.515l2.98,9.289,2.973-9.289h4.235V17.867H37.458V14.752l.312-6.386-3.229,9.5H32.414l-3.24-9.508.312,6.393v3.115H26.268V4.515Z" transform="translate(64.85 11.146)" fill="#fff"/>
    <path id="Path_300" data-name="Path 300" d="M39.294,12.2H34.233v3.191H40.21V17.87h-9.2V4.515h9.217V7h-6V9.819h5.061Z" transform="translate(76.568 11.145)" fill="#fff"/>
    <path id="Path_301" data-name="Path 301" d="M45.063,7H41.056V17.867H37.837V7H33.9V4.516H45.063Z" transform="translate(83.693 11.148)" fill="#fff"/>
    <path id="Path_302" data-name="Path 302" d="M28.345,45.02l-4.392,4.818V61.545h-10.7V17.155h10.7V36.726l3.722-5.64,9.57-13.931H50.479l-15,19.633,15,24.757H37.8Z" transform="translate(32.716 42.351)" fill="#fff"/>
    <path id="Path_303" data-name="Path 303" d="M35.467,53.313H54.095v8.231H24.766V17.155h10.7Z" transform="translate(61.142 42.35)" fill="#fff"/>
    <path id="Path_304" data-name="Path 304" d="M62.053,42.7H45.223V53.314H65.1v8.231H34.521V17.155h30.64v8.263H45.223v9.359H62.053Z" transform="translate(85.227 42.351)" fill="#fff"/>
    <path id="Path_305" data-name="Path 305" d="M79.519,17.155V46.21a16.734,16.734,0,0,1-2.1,8.554,13.683,13.683,0,0,1-6.039,5.5,21.273,21.273,0,0,1-9.3,1.891q-8.112,0-12.776-4.208T44.55,46.425V17.155H55.31V46.636q.187,7.285,6.771,7.288a6.548,6.548,0,0,0,5.03-1.832q1.707-1.826,1.707-5.946V17.155Z" transform="translate(109.985 42.351)" fill="#fff"/>
    <path id="Path_306" data-name="Path 306" d="M73.05,45.842H67.257v15.7h-10.7V17.155H74.025q7.9,0,12.349,3.5t4.45,9.9a14.42,14.42,0,0,1-1.873,7.673,13.326,13.326,0,0,1-5.869,4.936l9.265,17.923v.454H80.886Zm-5.793-8.231h6.768A6.065,6.065,0,0,0,78.614,36a6.193,6.193,0,0,0,1.54-4.475A6.291,6.291,0,0,0,78.6,27.02a6.028,6.028,0,0,0-4.575-1.634H67.257Z" transform="translate(139.626 42.351)" fill="#fff"/>
    <path id="Path_323" data-name="Path 323" d="M131.246,0H7.375A7.373,7.373,0,0,0,0,7.375V37.307a7.366,7.366,0,0,0,7.177,7.357V59.043a1.972,1.972,0,0,0,3.143,1.589l21.607-15.95h99.319a7.375,7.375,0,0,0,7.375-7.375V7.375A7.375,7.375,0,0,0,131.246,0" transform="translate(1172 110.999)" fill="#00b5a9"/>
  </g>
</svg>
